<svg width="11" height="12" viewBox="0 0 11 12" fill="none" xmlns="http://www.w3.org/2000/svg">
<path d="M7.58333 8.75C7.82639 8.75 8.03299 8.66493 8.20312 8.49479C8.37326 8.32465 8.45833 8.11806 8.45833 7.875C8.45833 7.63194 8.37326 7.42535 8.20312 7.25521C8.03299 7.08507 7.82639 7 7.58333 7C7.34028 7 7.13368 7.08507 6.96354 7.25521C6.7934 7.42535 6.70833 7.63194 6.70833 7.875C6.70833 8.11806 6.7934 8.32465 6.96354 8.49479C7.13368 8.66493 7.34028 8.75 7.58333 8.75ZM7.58333 10.5C7.88472 10.5 8.16181 10.4295 8.41458 10.2885C8.66736 10.1476 8.87153 9.96042 9.02708 9.72708C8.81319 9.60069 8.58472 9.50347 8.34167 9.43542C8.09861 9.36736 7.84583 9.33333 7.58333 9.33333C7.32083 9.33333 7.06806 9.36736 6.825 9.43542C6.58194 9.50347 6.35347 9.60069 6.13958 9.72708C6.29514 9.96042 6.49931 10.1476 6.75208 10.2885C7.00486 10.4295 7.28194 10.5 7.58333 10.5ZM4.66667 11.6667C3.31528 11.3264 2.19965 10.551 1.31979 9.34062C0.439931 8.13021 0 6.78611 0 5.30833V1.75L4.66667 0L9.33333 1.75V5.06042C9.14861 4.98264 8.95903 4.91215 8.76458 4.84896C8.57014 4.78576 8.37083 4.73958 8.16667 4.71042V2.56667L4.66667 1.25417L1.16667 2.56667V5.30833C1.16667 5.76528 1.22743 6.22222 1.34896 6.67917C1.47049 7.13611 1.64062 7.57118 1.85938 7.98438C2.07812 8.39757 2.34306 8.77917 2.65417 9.12917C2.96528 9.47917 3.31042 9.77083 3.68958 10.0042C3.79653 10.3153 3.9375 10.6118 4.1125 10.8938C4.2875 11.1757 4.48681 11.4285 4.71042 11.6521C4.70069 11.6521 4.6934 11.6545 4.68854 11.6594C4.68368 11.6642 4.67639 11.6667 4.66667 11.6667ZM7.58333 11.6667C6.77639 11.6667 6.08854 11.3823 5.51979 10.8135C4.95104 10.2448 4.66667 9.55694 4.66667 8.75C4.66667 7.94306 4.95104 7.25521 5.51979 6.68646C6.08854 6.11771 6.77639 5.83333 7.58333 5.83333C8.39028 5.83333 9.07812 6.11771 9.64688 6.68646C10.2156 7.25521 10.5 7.94306 10.5 8.75C10.5 9.55694 10.2156 10.2448 9.64688 10.8135C9.07812 11.3823 8.39028 11.6667 7.58333 11.6667Z" fill="#775A19"/>
</svg>
